<svg width="35" height="21" viewBox="0 0 35 21" fill="none" xmlns="http://www.w3.org/2000/svg">
<path d="M33.0177 11.8924C33.0738 11.781 33.1031 11.6584 33.1034 11.534V10.3417C33.1028 9.94822 32.944 9.57099 32.6618 9.29274C32.3796 9.01448 31.9971 8.85789 31.598 8.85728H30.6057V2.20043C30.6041 1.61721 30.3683 1.05833 29.95 0.645999C29.5318 0.233664 28.9649 0.00140559 28.3735 0L6.69136 0C6.0995 0.000802782 5.53207 0.232795 5.11327 0.645195C4.69447 1.0576 4.45842 1.61681 4.45679 2.20043V8.85728H3.40123C3.0021 8.85769 2.61944 9.01421 2.33721 9.29251C2.05498 9.57082 1.89624 9.94816 1.89583 10.3417V11.534C1.89617 11.6586 1.92547 11.7815 1.98148 11.8932C1.41316 12.0455 0.911352 12.3778 0.553318 12.8389C0.195284 13.3 0.000869058 13.8644 0 14.4451V17.9976C0.000408336 18.3111 0.12687 18.6116 0.351652 18.8332C0.576433 19.0549 0.881185 19.1796 1.19907 19.18H3.68673V20.2878C3.68714 20.4767 3.76346 20.6577 3.89899 20.7912C4.03451 20.9247 4.21817 20.9998 4.40972 21H5.05787C5.24942 20.9998 5.43309 20.9247 5.56861 20.7912C5.70413 20.6577 5.78046 20.4767 5.78086 20.2878V19.18H30.0494V20.2878C30.0498 20.4767 30.1261 20.6577 30.2616 20.7912C30.3972 20.9247 30.5808 20.9998 30.7724 21H31.4205C31.6121 20.9998 31.7957 20.9247 31.9313 20.7912C32.0668 20.6577 32.1431 20.4767 32.1435 20.2878V19.18H33.8009C34.1188 19.1796 34.4236 19.0549 34.6483 18.8332C34.8731 18.6116 34.9996 18.3111 35 17.9976V14.4451C34.9991 13.8642 34.8046 13.2996 34.4464 12.8383C34.0883 12.3771 33.5863 12.0447 33.0177 11.8924ZM5.01543 2.20043C5.01584 1.76279 5.19212 1.34313 5.50566 1.03338C5.8192 0.723632 6.24445 0.549034 6.68827 0.547826H28.3742C28.8185 0.54843 29.2444 0.722738 29.5586 1.03253C29.8728 1.34232 30.0495 1.76232 30.0502 2.20043V8.78804H26.7593V8.06522C26.7591 7.85433 26.6741 7.65213 26.5229 7.50294C26.3718 7.35375 26.1668 7.26975 25.9529 7.26935H20.159C19.945 7.26955 19.7398 7.35346 19.5885 7.50268C19.4372 7.65189 19.3521 7.8542 19.3519 8.06522V8.79185H15.7099V8.06522C15.7097 7.85433 15.6247 7.65213 15.4735 7.50294C15.3224 7.35375 15.1174 7.26975 14.9035 7.26935H9.10957C8.89557 7.26955 8.6904 7.35346 8.53909 7.50268C8.38777 7.65189 8.30267 7.8542 8.30247 8.06522V8.79185H5.01543V2.20043ZM26.2037 8.06522V8.79185H19.9074V8.06522C19.9074 7.99943 19.9339 7.93634 19.9811 7.88982C20.0283 7.84331 20.0922 7.81717 20.159 7.81717H25.9529C26.0195 7.81737 26.0833 7.8436 26.1303 7.89009C26.1773 7.93659 26.2037 7.99956 26.2037 8.06522ZM15.1543 8.06522V8.79185H8.85802V8.06522C8.85802 7.99943 8.88453 7.93634 8.9317 7.88982C8.97887 7.84331 9.04285 7.81717 9.10957 7.81717H14.9035C14.9701 7.81737 15.0339 7.8436 15.0809 7.89009C15.1279 7.93659 15.1543 7.99956 15.1543 8.06522ZM2.45139 10.3478C2.45159 10.0995 2.55173 9.86136 2.72982 9.68575C2.9079 9.51014 3.14938 9.4114 3.40123 9.4112H31.598C31.8498 9.4116 32.0911 9.51041 32.2692 9.68597C32.4472 9.86154 32.5474 10.0995 32.5478 10.3478V11.5401C32.5478 11.6107 32.5194 11.6785 32.4687 11.7284C32.4181 11.7784 32.3494 11.8064 32.2778 11.8064H2.72531C2.65368 11.8064 2.58499 11.7784 2.53435 11.7284C2.4837 11.6785 2.45525 11.6107 2.45525 11.5401L2.45139 10.3478ZM5.22917 20.2932C5.22917 20.3148 5.22484 20.3363 5.21642 20.3563C5.20801 20.3764 5.19567 20.3946 5.18012 20.4099C5.16458 20.4252 5.14612 20.4374 5.1258 20.4457C5.10549 20.454 5.08372 20.4583 5.06173 20.4583H4.41358C4.39087 20.4586 4.36833 20.4543 4.34733 20.4458C4.32633 20.4373 4.30731 20.4246 4.29143 20.4086C4.27555 20.3926 4.26314 20.3736 4.25496 20.3527C4.24677 20.3318 4.24299 20.3094 4.24383 20.2871V19.2287H5.22531L5.22917 20.2932ZM31.5918 20.2932C31.5918 20.3148 31.5875 20.3363 31.5791 20.3563C31.5707 20.3764 31.5583 20.3946 31.5428 20.4099C31.5272 20.4252 31.5088 20.4374 31.4885 20.4457C31.4681 20.454 31.4464 20.4583 31.4244 20.4583H30.7762C30.732 20.4581 30.6896 20.4406 30.6583 20.4096C30.6271 20.3787 30.6096 20.3368 30.6096 20.2932V19.2287H31.5918V20.2871V20.2932ZM34.4468 18.0037C34.4466 18.1719 34.3787 18.3332 34.258 18.4522C34.1374 18.5711 33.9739 18.6381 33.8032 18.6383H1.19907C1.02847 18.6381 0.864902 18.5711 0.744263 18.4522C0.623624 18.3332 0.55576 18.1719 0.555556 18.0037V14.4451C0.556168 13.8893 0.78033 13.3565 1.17886 12.9635C1.57738 12.5706 2.11773 12.3495 2.68133 12.3489H32.3179C32.8816 12.3493 33.4222 12.5703 33.8209 12.9633C34.2196 13.3563 34.4438 13.8892 34.4444 14.4451V17.9976L34.4468 18.0037Z" fill="#163152"/>
<path d="M15.1543 8.06522V8.79185H8.85802V8.06522C8.85802 7.99943 8.88453 7.93634 8.9317 7.88982C8.97887 7.84331 9.04285 7.81717 9.10957 7.81717H14.9035C14.9701 7.81737 15.0339 7.8436 15.0809 7.89009C15.1279 7.93659 15.1543 7.99956 15.1543 8.06522Z" fill="#163152"/>
<path d="M26.2037 8.06522V8.79185H19.9074V8.06522C19.9074 7.99943 19.9339 7.93634 19.9811 7.88982C20.0283 7.84331 20.0922 7.81717 20.159 7.81717H25.9529C26.0195 7.81737 26.0833 7.8436 26.1303 7.89009C26.1773 7.93659 26.2037 7.99956 26.2037 8.06522Z" fill="#163152"/>
<path d="M31.5918 20.2932C31.5918 20.3148 31.5875 20.3363 31.5791 20.3563C31.5707 20.3764 31.5583 20.3946 31.5428 20.4099C31.5272 20.4252 31.5088 20.4374 31.4885 20.4457C31.4681 20.454 31.4464 20.4583 31.4244 20.4583H30.7762C30.732 20.4581 30.6896 20.4406 30.6583 20.4096C30.6271 20.3787 30.6096 20.3368 30.6096 20.2932V19.2287H31.5918V20.2871V20.2932Z" fill="#163152"/>
<path d="M5.22917 20.2932C5.22917 20.3148 5.22484 20.3363 5.21642 20.3563C5.20801 20.3764 5.19567 20.3946 5.18012 20.4099C5.16458 20.4252 5.14612 20.4374 5.1258 20.4457C5.10549 20.454 5.08372 20.4583 5.06173 20.4583H4.41358C4.39087 20.4586 4.36833 20.4543 4.34733 20.4458C4.32633 20.4373 4.30731 20.4246 4.29143 20.4086C4.27555 20.3926 4.26314 20.3736 4.25496 20.3527C4.24677 20.3318 4.24299 20.3094 4.24383 20.2871V19.2287H5.22531L5.22917 20.2932Z" fill="#163152"/>
</svg>
